<?xml version="1.0" encoding="UTF-8"?>
<svg width="98px" height="98px" viewBox="0 0 98 98" version="1.1" xmlns="http://www.w3.org/2000/svg" xmlns:xlink="http://www.w3.org/1999/xlink">
    <!-- Generator: Sketch 54.1 (76490) - https://sketchapp.com -->
    <title>Group 2</title>
    <desc>Created with Sketch.</desc>
    <g id="Page-1" stroke="none" stroke-width="1" fill="none" fill-rule="evenodd">
        <g id="Desktop-HD" transform="translate(-671.000000, -81.000000)">
            <g id="Group" transform="translate(671.000000, 81.000000)">
                <g id="Group-2">
                    <path d="M41.8834555,-1.44816729e-15 L56.1165445,1.44816729e-15 C69.2292516,-9.60597936e-16 75.0656362,1.57803539 80.606377,4.54125596 C86.1471177,7.50447654 90.4955235,11.8528823 93.458744,17.393623 C96.4219646,22.9343638 98,28.7707484 98,41.8834555 L98,56.1165445 C98,69.2292516 96.4219646,75.0656362 93.458744,80.606377 C90.4955235,86.1471177 86.1471177,90.4955235 80.606377,93.458744 C75.0656362,96.4219646 69.2292516,98 56.1165445,98 L41.8834555,98 C28.7707484,98 22.9343638,96.4219646 17.393623,93.458744 C11.8528823,90.4955235 7.50447654,86.1471177 4.54125596,80.606377 C1.57803539,75.0656362 6.40398624e-16,69.2292516 -9.6544486e-16,56.1165445 L9.6544486e-16,41.8834555 C-6.40398624e-16,28.7707484 1.57803539,22.9343638 4.54125596,17.393623 C7.50447654,11.8528823 11.8528823,7.50447654 17.393623,4.54125596 C22.9343638,1.57803539 28.7707484,9.60597936e-16 41.8834555,-1.44816729e-15 Z" id="Rectangle" fill="#FFFB00"></path>
                    <path d="M25.5600586,58 L20.3842773,58 L20.3842773,52.4213867 L14.3662109,40.3852539 L19.8959961,40.3852539 L22.984375,47.5263672 L23.0820312,47.5263672 L26.1704102,40.3852539 L31.578125,40.3852539 L25.5600586,52.4213867 L25.5600586,58 Z M41.6123047,40.0800781 C47.0566406,40.0800781 50.4868164,43.5712891 50.4868164,49.1987305 C50.4868164,54.8261719 47.0566406,58.3051758 41.6123047,58.3051758 C36.1557617,58.3051758 32.737793,54.8261719 32.737793,49.1987305 C32.737793,43.5712891 36.1679688,40.0800781 41.6123047,40.0800781 Z M41.6123047,44.2060547 C39.4516602,44.2060547 38.0112305,46.1469727 38.0112305,49.1987305 C38.0112305,52.2382812 39.4394531,54.1791992 41.6123047,54.1791992 C43.7851562,54.1791992 45.2133789,52.2382812 45.2133789,49.1987305 C45.2133789,46.1469727 43.7729492,44.2060547 41.6123047,44.2060547 Z M64.5859375,53.8862305 L64.5859375,58 L52.5009766,58 L52.5009766,40.3852539 L57.6767578,40.3852539 L57.6767578,53.8862305 L64.5859375,53.8862305 Z M74.9863281,40.0800781 C80.4306641,40.0800781 83.8608398,43.5712891 83.8608398,49.1987305 C83.8608398,54.8261719 80.4306641,58.3051758 74.9863281,58.3051758 C69.5297852,58.3051758 66.1118164,54.8261719 66.1118164,49.1987305 C66.1118164,43.5712891 69.5419922,40.0800781 74.9863281,40.0800781 Z M74.9863281,44.2060547 C72.8256836,44.2060547 71.3852539,46.1469727 71.3852539,49.1987305 C71.3852539,52.2382812 72.8134766,54.1791992 74.9863281,54.1791992 C77.1591797,54.1791992 78.5874023,52.2382812 78.5874023,49.1987305 C78.5874023,46.1469727 77.1469727,44.2060547 74.9863281,44.2060547 Z" id="YOLO" fill="#000000" fill-rule="nonzero"></path>
                </g>
            </g>
        </g>
    </g>
</svg>